# xmcd
#
# Track frame offsets:
#	150
#	12950
#	42007
#	61557
#	74162
#	90237
#	107245
#	134037
#	158817
#	186082
#	204645
#	220750
#	242262
#	272037
#	283057
#	308612
#	331970
#
# Disc length: 4666 seconds
#
# Revision: 1
# Processed by: cddbd v1.5.2PL0 Copyright (c) Steve Scherf et al.
# Submitted via: audiograbber 1.83.01
#
DISCID=ef123811
DTITLE=Roy Buchanan - Landy Star Series (Nostalgy Planet) ¹85
DYEAR=2002
DGENRE=Blues
TTITLE0=My Sonata
TTITLE1=Five String Blues
TTITLE2=Sunset Did it
TTITLE3=Treat Her Right
TTITLE4=Sweet Dream
TTITLE5=I Am A Lonesome Fugitive
TTITLE6=The Messiah Will Come Again
TTITLE7=Hey Joe
TTITLE8=Roy's Bluz
TTITLE9=It Should've Been Me
TTITLE10=Secret Love
TTITLE11=Please Don't Turn Me Away
TTITLE12=I Won't Tell You No Lies
TTITLE13=Thank You Lord
TTITLE14=Pete's Blue
TTITLE15=That did it
TTITLE16=Can I Change My Mind
EXTD=
EXTT0=
EXTT1=
EXTT2=
EXTT3=
EXTT4=
EXTT5=
EXTT6=
EXTT7=
EXTT8=
EXTT9=
EXTT10=
EXTT11=
EXTT12=
EXTT13=
EXTT14=
EXTT15=
EXTT16=
PLAYORDER=
